# xmcd
#
# Track frame offsets:
# 150
# 17980
# 40395
# 58122
# 70632
# 91165
# 114405
# 136065
# 156217
# 182265
# 204762
# 221130
# 243165
# 259031
# 277796
# 299857
# 317287
#
# Disc length: 4486 seconds
#
#
# Revision: 0
# Processed by: cddbd v1.5.1PL0 Copyright (c) Steve Scherf et al.
# Submitted via: FreeRIP 2.941 
#
DISCID=e9118411
DTITLE=Gordon Haskell - Shadows on the wall
DYEAR=2003
DGENRE=
TTITLE0=How Wonderful You Are
TTITLE1=All The Time I The World
TTITLE2=Voodoo Dance
TTITLE3=Freeway To Her Dreams
TTITLE4=Sunshine In The Night
TTITLE5=Al Capone
TTITLE6=Feelin Losose
TTITLE7=There Goes My Heart Again
TTITLE8=Roll With It
TTITLE9=Someone I Knew
TTITLE10=A Little Help From You
TTITLE11=All In The Scheme Of Things
TTITLE12=Sunshine Days
TTITLE13=Whole Wide World
TTITLE14=Shadows On The Wall
TTITLE15=Look Out
TTITLE16=Roll Away
EXTD=
EXTT0=
EXTT1=
EXTT2=
EXTT3=
EXTT4=
EXTT5=
EXTT6=
EXTT7=
EXTT8=
EXTT9=
EXTT10=
EXTT11=
EXTT12=
EXTT13=
EXTT14=
EXTT15=
EXTT16=
PLAYORDER=
